<?xml version="1.0" encoding="utf-8" standalone="no"?>
<!DOCTYPE svg PUBLIC "-//W3C//DTD SVG 1.1//EN"
  "http://www.w3.org/Graphics/SVG/1.1/DTD/svg11.dtd">
<svg xmlns:xlink="http://www.w3.org/1999/xlink" width="864pt" height="360pt" viewBox="0 0 864 360" xmlns="http://www.w3.org/2000/svg" version="1.1">
 <metadata>
  <rdf:RDF xmlns:dc="http://purl.org/dc/elements/1.1/" xmlns:cc="http://creativecommons.org/ns#" xmlns:rdf="http://www.w3.org/1999/02/22-rdf-syntax-ns#">
   <cc:Work>
    <dc:type rdf:resource="http://purl.org/dc/dcmitype/StillImage"/>
    <dc:date>2023-12-22T22:20:22.724841</dc:date>
    <dc:format>image/svg+xml</dc:format>
    <dc:creator>
     <cc:Agent>
      <dc:title>Matplotlib v3.7.2, https://matplotlib.org/</dc:title>
     </cc:Agent>
    </dc:creator>
   </cc:Work>
  </rdf:RDF>
 </metadata>
 <defs>
  <style type="text/css">*{stroke-linejoin: round; stroke-linecap: butt}</style>
 </defs>
 <g id="figure_1">
  <g id="patch_1">
   <path d="M 0 360 
L 864 360 
L 864 0 
L 0 0 
z
" style="fill: #ffffff"/>
  </g>
  <g id="axes_1">
   <g id="patch_2">
    <path d="M 51.05 318.04 
L 853.2 318.04 
L 853.2 25.44 
L 51.05 25.44 
z
" style="fill: #ffffff"/>
   </g>
   <g id="PolyCollection_1">
    <path d="M 162.948668 140.892091 
L 162.948668 279.454829 
L 162.948668 140.892091 
L 162.948668 140.892091 
z
" clip-path="url(#p5c3298dedd)" style="fill: #1f77b4; fill-opacity: 0.2; stroke: #1f77b4; stroke-opacity: 0.2"/>
    <path d="M 181.807994 240.009962 
L 181.807994 270.352167 
L 188.094436 299.682966 
L 194.380878 303.728593 
L 194.380878 280.466236 
L 194.380878 280.466236 
L 188.094436 202.587909 
L 181.807994 240.009962 
z
" clip-path="url(#p5c3298dedd)" style="fill: #1f77b4; fill-opacity: 0.2; stroke: #1f77b4; stroke-opacity: 0.2"/>
    <path d="M 225.813088 127.743802 
L 225.813088 294.625932 
L 232.09953 301.301217 
L 238.385972 286.871812 
L 244.672414 304.571432 
L 250.958856 279.599316 
L 257.245298 264.283726 
L 263.53174 298.671559 
L 263.53174 241.628213 
L 263.53174 241.628213 
L 257.245298 132.800837 
L 250.958856 202.732395 
L 244.672414 256.023904 
L 238.385972 187.753942 
L 232.09953 238.796274 
L 225.813088 127.743802 
z
" clip-path="url(#p5c3298dedd)" style="fill: #1f77b4; fill-opacity: 0.2; stroke: #1f77b4; stroke-opacity: 0.2"/>
    <path d="M 276.104624 104.481445 
L 276.104624 286.534677 
L 282.391066 226.861673 
L 288.677508 241.021369 
L 294.96395 236.087951 
L 301.250392 249.119848 
L 307.536834 264.452294 
L 313.823276 268.762814 
L 320.109718 266.816458 
L 326.39616 248.56802 
L 332.682602 279.859392 
L 338.969044 287.546084 
L 345.255486 288.561103 
L 351.541928 247.570228 
L 357.82837 264.962212 
L 364.114812 237.054758 
L 370.401254 249.116236 
L 376.687696 252.5727 
L 382.974138 253.533916 
L 389.26058 265.554306 
L 395.547022 243.506212 
L 401.833464 278.017186 
L 408.119906 292.706787 
L 414.406348 270.017139 
L 420.69279 245.076312 
L 426.979232 278.636221 
L 433.265674 255.146585 
L 439.552116 237.546889 
L 445.838558 241.897155 
L 452.125 245.281452 
L 458.411442 239.273608 
L 464.697884 247.323878 
L 470.984326 218.345934 
L 477.270768 259.873992 
L 483.55721 248.500361 
L 489.843652 238.125374 
L 496.130094 238.254292 
L 502.416536 248.380886 
L 508.702978 249.754024 
L 514.98942 238.161255 
L 521.275862 252.952728 
L 527.562304 231.378327 
L 533.848746 256.900456 
L 540.135188 254.615066 
L 546.42163 241.152392 
L 552.708072 260.932935 
L 558.994514 228.443963 
L 565.280956 233.334677 
L 571.567398 236.624278 
L 577.85384 249.723682 
L 584.140282 239.202733 
L 590.426724 226.255379 
L 596.713166 231.162259 
L 602.999608 236.466498 
L 609.28605 230.997681 
L 615.572492 220.318763 
L 621.858934 209.141328 
L 628.145376 221.462104 
L 634.431818 215.583433 
L 640.71826 221.255918 
L 647.004702 216.476252 
L 653.291144 218.476878 
L 659.577586 205.613099 
L 665.864028 211.016404 
L 672.15047 249.96036 
L 678.436912 211.051928 
L 684.723354 208.424079 
L 691.009796 212.439129 
L 697.296238 209.017064 
L 703.58268 215.432159 
L 709.869122 204.087226 
L 716.155564 201.23569 
L 722.442006 211.692219 
L 728.728448 191.535562 
L 735.01489 196.026407 
L 741.301332 208.76185 
L 747.587774 212.937529 
L 753.874216 192.791195 
L 760.160658 204.072248 
L 766.4471 199.734515 
L 772.733542 199.044048 
L 779.019984 207.902646 
L 785.306426 195.649451 
L 791.592868 204.126463 
L 797.87931 211.903957 
L 804.165752 222.878515 
L 810.452194 298.192471 
L 810.452194 283.181065 
L 810.452194 283.181065 
L 804.165752 183.192398 
L 797.87931 182.831135 
L 791.592868 174.108484 
L 785.306426 170.703437 
L 779.019984 179.372447 
L 772.733542 171.447479 
L 766.4471 172.089702 
L 760.160658 179.316568 
L 753.874216 161.512406 
L 747.587774 170.622351 
L 741.301332 181.788022 
L 735.01489 163.57289 
L 728.728448 158.858941 
L 722.442006 177.148278 
L 716.155564 163.053468 
L 709.869122 170.257852 
L 703.58268 177.758487 
L 697.296238 173.620385 
L 691.009796 176.667668 
L 684.723354 176.196952 
L 678.436912 170.828201 
L 672.15047 216.705577 
L 665.864028 173.004575 
L 659.577586 164.22308 
L 653.291144 186.195561 
L 647.004702 173.712243 
L 640.71826 185.790674 
L 634.431818 169.048534 
L 628.145376 182.331326 
L 621.858934 152.496741 
L 615.572492 174.305205 
L 609.28605 174.61175 
L 602.999608 196.882563 
L 596.713166 176.668501 
L 590.426724 165.428052 
L 584.140282 196.92087 
L 577.85384 197.090913 
L 571.567398 172.843698 
L 565.280956 181.267576 
L 558.994514 180.107144 
L 552.708072 194.852669 
L 546.42163 187.812174 
L 540.135188 207.744787 
L 533.848746 207.509722 
L 527.562304 173.426882 
L 521.275862 199.860352 
L 514.98942 186.137376 
L 508.702978 195.865425 
L 502.416536 196.08349 
L 496.130094 173.960698 
L 489.843652 203.427376 
L 483.55721 205.934582 
L 477.270768 209.990395 
L 470.984326 157.073835 
L 464.697884 204.424335 
L 458.411442 195.508061 
L 452.125 179.506293 
L 445.838558 158.159564 
L 439.552116 152.670519 
L 433.265674 213.107689 
L 426.979232 239.75553 
L 420.69279 183.950076 
L 414.406348 216.486324 
L 408.119906 254.068517 
L 401.833464 204.527643 
L 395.547022 162.216685 
L 389.26058 172.365808 
L 382.974138 176.280494 
L 376.687696 179.000837 
L 370.401254 182.71557 
L 364.114812 166.300528 
L 357.82837 203.841632 
L 351.541928 181.155008 
L 345.255486 194.496654 
L 338.969044 258.215285 
L 332.682602 173.444221 
L 326.39616 201.564832 
L 320.109718 193.72967 
L 313.823276 169.211483 
L 307.536834 125.366996 
L 301.250392 174.413004 
L 294.96395 110.325129 
L 288.677508 192.47384 
L 282.391066 101.447224 
L 276.104624 104.481445 
z
" clip-path="url(#p5c3298dedd)" style="fill: #1f77b4; fill-opacity: 0.2; stroke: #1f77b4; stroke-opacity: 0.2"/>
   </g>
   <g id="matplotlib.axis_1">
    <g id="xtick_1">
     <g id="line2d_1">
      <defs>
       <path id="mae2d839cc9" d="M 0 0 
L 0 3.5 
" style="stroke: #000000; stroke-width: 0.8"/>
      </defs>
      <g>
       <use xlink:href="#mae2d839cc9" x="100.084248" y="318.04" style="stroke: #000000; stroke-width: 0.8"/>
      </g>
     </g>
     <g id="text_1">
      <!-- 1900 -->
      <g transform="translate(87.359248 332.638438) scale(0.1 -0.1)">
       <defs>
        <path id="DejaVuSans-31" d="M 794 531 
L 1825 531 
L 1825 4091 
L 703 3866 
L 703 4441 
L 1819 4666 
L 2450 4666 
L 2450 531 
L 3481 531 
L 3481 0 
L 794 0 
L 794 531 
z
" transform="scale(0.015625)"/>
        <path id="DejaVuSans-39" d="M 703 97 
L 703 672 
Q 941 559 1184 500 
Q 1428 441 1663 441 
Q 2288 441 2617 861 
Q 2947 1281 2994 2138 
Q 2813 1869 2534 1725 
Q 2256 1581 1919 1581 
Q 1219 1581 811 2004 
Q 403 2428 403 3163 
Q 403 3881 828 4315 
Q 1253 4750 1959 4750 
Q 2769 4750 3195 4129 
Q 3622 3509 3622 2328 
Q 3622 1225 3098 567 
Q 2575 -91 1691 -91 
Q 1453 -91 1209 -44 
Q 966 3 703 97 
z
M 1959 2075 
Q 2384 2075 2632 2365 
Q 2881 2656 2881 3163 
Q 2881 3666 2632 3958 
Q 2384 4250 1959 4250 
Q 1534 4250 1286 3958 
Q 1038 3666 1038 3163 
Q 1038 2656 1286 2365 
Q 1534 2075 1959 2075 
z
" transform="scale(0.015625)"/>
        <path id="DejaVuSans-30" d="M 2034 4250 
Q 1547 4250 1301 3770 
Q 1056 3291 1056 2328 
Q 1056 1369 1301 889 
Q 1547 409 2034 409 
Q 2525 409 2770 889 
Q 3016 1369 3016 2328 
Q 3016 3291 2770 3770 
Q 2525 4250 2034 4250 
z
M 2034 4750 
Q 2819 4750 3233 4129 
Q 3647 3509 3647 2328 
Q 3647 1150 3233 529 
Q 2819 -91 2034 -91 
Q 1250 -91 836 529 
Q 422 1150 422 2328 
Q 422 3509 836 4129 
Q 1250 4750 2034 4750 
z
" transform="scale(0.015625)"/>
       </defs>
       <use xlink:href="#DejaVuSans-31"/>
       <use xlink:href="#DejaVuSans-39" x="63.623047"/>
       <use xlink:href="#DejaVuSans-30" x="127.246094"/>
       <use xlink:href="#DejaVuSans-30" x="190.869141"/>
      </g>
     </g>
    </g>
    <g id="xtick_2">
     <g id="line2d_2">
      <g>
       <use xlink:href="#mae2d839cc9" x="225.813088" y="318.04" style="stroke: #000000; stroke-width: 0.8"/>
      </g>
     </g>
     <g id="text_2">
      <!-- 1920 -->
      <g transform="translate(213.088088 332.638438) scale(0.1 -0.1)">
       <defs>
        <path id="DejaVuSans-32" d="M 1228 531 
L 3431 531 
L 3431 0 
L 469 0 
L 469 531 
Q 828 903 1448 1529 
Q 2069 2156 2228 2338 
Q 2531 2678 2651 2914 
Q 2772 3150 2772 3378 
Q 2772 3750 2511 3984 
Q 2250 4219 1831 4219 
Q 1534 4219 1204 4116 
Q 875 4013 500 3803 
L 500 4441 
Q 881 4594 1212 4672 
Q 1544 4750 1819 4750 
Q 2544 4750 2975 4387 
Q 3406 4025 3406 3419 
Q 3406 3131 3298 2873 
Q 3191 2616 2906 2266 
Q 2828 2175 2409 1742 
Q 1991 1309 1228 531 
z
" transform="scale(0.015625)"/>
       </defs>
       <use xlink:href="#DejaVuSans-31"/>
       <use xlink:href="#DejaVuSans-39" x="63.623047"/>
       <use xlink:href="#DejaVuSans-32" x="127.246094"/>
       <use xlink:href="#DejaVuSans-30" x="190.869141"/>
      </g>
     </g>
    </g>
    <g id="xtick_3">
     <g id="line2d_3">
      <g>
       <use xlink:href="#mae2d839cc9" x="351.541928" y="318.04" style="stroke: #000000; stroke-width: 0.8"/>
      </g>
     </g>
     <g id="text_3">
      <!-- 1940 -->
      <g transform="translate(338.816928 332.638438) scale(0.1 -0.1)">
       <defs>
        <path id="DejaVuSans-34" d="M 2419 4116 
L 825 1625 
L 2419 1625 
L 2419 4116 
z
M 2253 4666 
L 3047 4666 
L 3047 1625 
L 3713 1625 
L 3713 1100 
L 3047 1100 
L 3047 0 
L 2419 0 
L 2419 1100 
L 313 1100 
L 313 1709 
L 2253 4666 
z
" transform="scale(0.015625)"/>
       </defs>
       <use xlink:href="#DejaVuSans-31"/>
       <use xlink:href="#DejaVuSans-39" x="63.623047"/>
       <use xlink:href="#DejaVuSans-34" x="127.246094"/>
       <use xlink:href="#DejaVuSans-30" x="190.869141"/>
      </g>
     </g>
    </g>
    <g id="xtick_4">
     <g id="line2d_4">
      <g>
       <use xlink:href="#mae2d839cc9" x="477.270768" y="318.04" style="stroke: #000000; stroke-width: 0.8"/>
      </g>
     </g>
     <g id="text_4">
      <!-- 1960 -->
      <g transform="translate(464.545768 332.638438) scale(0.1 -0.1)">
       <defs>
        <path id="DejaVuSans-36" d="M 2113 2584 
Q 1688 2584 1439 2293 
Q 1191 2003 1191 1497 
Q 1191 994 1439 701 
Q 1688 409 2113 409 
Q 2538 409 2786 701 
Q 3034 994 3034 1497 
Q 3034 2003 2786 2293 
Q 2538 2584 2113 2584 
z
M 3366 4563 
L 3366 3988 
Q 3128 4100 2886 4159 
Q 2644 4219 2406 4219 
Q 1781 4219 1451 3797 
Q 1122 3375 1075 2522 
Q 1259 2794 1537 2939 
Q 1816 3084 2150 3084 
Q 2853 3084 3261 2657 
Q 3669 2231 3669 1497 
Q 3669 778 3244 343 
Q 2819 -91 2113 -91 
Q 1303 -91 875 529 
Q 447 1150 447 2328 
Q 447 3434 972 4092 
Q 1497 4750 2381 4750 
Q 2619 4750 2861 4703 
Q 3103 4656 3366 4563 
z
" transform="scale(0.015625)"/>
       </defs>
       <use xlink:href="#DejaVuSans-31"/>
       <use xlink:href="#DejaVuSans-39" x="63.623047"/>
       <use xlink:href="#DejaVuSans-36" x="127.246094"/>
       <use xlink:href="#DejaVuSans-30" x="190.869141"/>
      </g>
     </g>
    </g>
    <g id="xtick_5">
     <g id="line2d_5">
      <g>
       <use xlink:href="#mae2d839cc9" x="602.999608" y="318.04" style="stroke: #000000; stroke-width: 0.8"/>
      </g>
     </g>
     <g id="text_5">
      <!-- 1980 -->
      <g transform="translate(590.274608 332.638438) scale(0.1 -0.1)">
       <defs>
        <path id="DejaVuSans-38" d="M 2034 2216 
Q 1584 2216 1326 1975 
Q 1069 1734 1069 1313 
Q 1069 891 1326 650 
Q 1584 409 2034 409 
Q 2484 409 2743 651 
Q 3003 894 3003 1313 
Q 3003 1734 2745 1975 
Q 2488 2216 2034 2216 
z
M 1403 2484 
Q 997 2584 770 2862 
Q 544 3141 544 3541 
Q 544 4100 942 4425 
Q 1341 4750 2034 4750 
Q 2731 4750 3128 4425 
Q 3525 4100 3525 3541 
Q 3525 3141 3298 2862 
Q 3072 2584 2669 2484 
Q 3125 2378 3379 2068 
Q 3634 1759 3634 1313 
Q 3634 634 3220 271 
Q 2806 -91 2034 -91 
Q 1263 -91 848 271 
Q 434 634 434 1313 
Q 434 1759 690 2068 
Q 947 2378 1403 2484 
z
M 1172 3481 
Q 1172 3119 1398 2916 
Q 1625 2713 2034 2713 
Q 2441 2713 2670 2916 
Q 2900 3119 2900 3481 
Q 2900 3844 2670 4047 
Q 2441 4250 2034 4250 
Q 1625 4250 1398 4047 
Q 1172 3844 1172 3481 
z
" transform="scale(0.015625)"/>
       </defs>
       <use xlink:href="#DejaVuSans-31"/>
       <use xlink:href="#DejaVuSans-39" x="63.623047"/>
       <use xlink:href="#DejaVuSans-38" x="127.246094"/>
       <use xlink:href="#DejaVuSans-30" x="190.869141"/>
      </g>
     </g>
    </g>
    <g id="xtick_6">
     <g id="line2d_6">
      <g>
       <use xlink:href="#mae2d839cc9" x="728.728448" y="318.04" style="stroke: #000000; stroke-width: 0.8"/>
      </g>
     </g>
     <g id="text_6">
      <!-- 2000 -->
      <g transform="translate(716.003448 332.638438) scale(0.1 -0.1)">
       <use xlink:href="#DejaVuSans-32"/>
       <use xlink:href="#DejaVuSans-30" x="63.623047"/>
       <use xlink:href="#DejaVuSans-30" x="127.246094"/>
       <use xlink:href="#DejaVuSans-30" x="190.869141"/>
      </g>
     </g>
    </g>
    <g id="text_7">
     <!-- Time -->
     <g transform="translate(439.891406 346.316563) scale(0.1 -0.1)">
      <defs>
       <path id="DejaVuSans-54" d="M -19 4666 
L 3928 4666 
L 3928 4134 
L 2272 4134 
L 2272 0 
L 1638 0 
L 1638 4134 
L -19 4134 
L -19 4666 
z
" transform="scale(0.015625)"/>
       <path id="DejaVuSans-69" d="M 603 3500 
L 1178 3500 
L 1178 0 
L 603 0 
L 603 3500 
z
M 603 4863 
L 1178 4863 
L 1178 4134 
L 603 4134 
L 603 4863 
z
" transform="scale(0.015625)"/>
       <path id="DejaVuSans-6d" d="M 3328 2828 
Q 3544 3216 3844 3400 
Q 4144 3584 4550 3584 
Q 5097 3584 5394 3201 
Q 5691 2819 5691 2113 
L 5691 0 
L 5113 0 
L 5113 2094 
Q 5113 2597 4934 2840 
Q 4756 3084 4391 3084 
Q 3944 3084 3684 2787 
Q 3425 2491 3425 1978 
L 3425 0 
L 2847 0 
L 2847 2094 
Q 2847 2600 2669 2842 
Q 2491 3084 2119 3084 
Q 1678 3084 1418 2786 
Q 1159 2488 1159 1978 
L 1159 0 
L 581 0 
L 581 3500 
L 1159 3500 
L 1159 2956 
Q 1356 3278 1631 3431 
Q 1906 3584 2284 3584 
Q 2666 3584 2933 3390 
Q 3200 3197 3328 2828 
z
" transform="scale(0.015625)"/>
       <path id="DejaVuSans-65" d="M 3597 1894 
L 3597 1613 
L 953 1613 
Q 991 1019 1311 708 
Q 1631 397 2203 397 
Q 2534 397 2845 478 
Q 3156 559 3463 722 
L 3463 178 
Q 3153 47 2828 -22 
Q 2503 -91 2169 -91 
Q 1331 -91 842 396 
Q 353 884 353 1716 
Q 353 2575 817 3079 
Q 1281 3584 2069 3584 
Q 2775 3584 3186 3129 
Q 3597 2675 3597 1894 
z
M 3022 2063 
Q 3016 2534 2758 2815 
Q 2500 3097 2075 3097 
Q 1594 3097 1305 2825 
Q 1016 2553 972 2059 
L 3022 2063 
z
" transform="scale(0.015625)"/>
      </defs>
      <use xlink:href="#DejaVuSans-54"/>
      <use xlink:href="#DejaVuSans-69" x="57.958984"/>
      <use xlink:href="#DejaVuSans-6d" x="85.742188"/>
      <use xlink:href="#DejaVuSans-65" x="183.154297"/>
     </g>
    </g>
   </g>
   <g id="matplotlib.axis_2">
    <g id="ytick_1">
     <g id="line2d_7">
      <defs>
       <path id="mfbef119be7" d="M 0 0 
L -3.5 0 
" style="stroke: #000000; stroke-width: 0.8"/>
      </defs>
      <g>
       <use xlink:href="#mfbef119be7" x="51.05" y="275.409202" style="stroke: #000000; stroke-width: 0.8"/>
      </g>
     </g>
     <g id="text_8">
      <!-- 50 -->
      <g transform="translate(31.325 279.20842) scale(0.1 -0.1)">
       <defs>
        <path id="DejaVuSans-35" d="M 691 4666 
L 3169 4666 
L 3169 4134 
L 1269 4134 
L 1269 2991 
Q 1406 3038 1543 3061 
Q 1681 3084 1819 3084 
Q 2600 3084 3056 2656 
Q 3513 2228 3513 1497 
Q 3513 744 3044 326 
Q 2575 -91 1722 -91 
Q 1428 -91 1123 -41 
Q 819 9 494 109 
L 494 744 
Q 775 591 1075 516 
Q 1375 441 1709 441 
Q 2250 441 2565 725 
Q 2881 1009 2881 1497 
Q 2881 1984 2565 2268 
Q 2250 2553 1709 2553 
Q 1456 2553 1204 2497 
Q 953 2441 691 2322 
L 691 4666 
z
" transform="scale(0.015625)"/>
       </defs>
       <use xlink:href="#DejaVuSans-35"/>
       <use xlink:href="#DejaVuSans-30" x="63.623047"/>
      </g>
     </g>
    </g>
    <g id="ytick_2">
     <g id="line2d_8">
      <g>
       <use xlink:href="#mfbef119be7" x="51.05" y="224.838859" style="stroke: #000000; stroke-width: 0.8"/>
      </g>
     </g>
     <g id="text_9">
      <!-- 100 -->
      <g transform="translate(24.9625 228.638078) scale(0.1 -0.1)">
       <use xlink:href="#DejaVuSans-31"/>
       <use xlink:href="#DejaVuSans-30" x="63.623047"/>
       <use xlink:href="#DejaVuSans-30" x="127.246094"/>
      </g>
     </g>
    </g>
    <g id="ytick_3">
     <g id="line2d_9">
      <g>
       <use xlink:href="#mfbef119be7" x="51.05" y="174.268517" style="stroke: #000000; stroke-width: 0.8"/>
      </g>
     </g>
     <g id="text_10">
      <!-- 150 -->
      <g transform="translate(24.9625 178.067736) scale(0.1 -0.1)">
       <use xlink:href="#DejaVuSans-31"/>
       <use xlink:href="#DejaVuSans-35" x="63.623047"/>
       <use xlink:href="#DejaVuSans-30" x="127.246094"/>
      </g>
     </g>
    </g>
    <g id="ytick_4">
     <g id="line2d_10">
      <g>
       <use xlink:href="#mfbef119be7" x="51.05" y="123.698175" style="stroke: #000000; stroke-width: 0.8"/>
      </g>
     </g>
     <g id="text_11">
      <!-- 200 -->
      <g transform="translate(24.9625 127.497394) scale(0.1 -0.1)">
       <use xlink:href="#DejaVuSans-32"/>
       <use xlink:href="#DejaVuSans-30" x="63.623047"/>
       <use xlink:href="#DejaVuSans-30" x="127.246094"/>
      </g>
     </g>
    </g>
    <g id="ytick_5">
     <g id="line2d_11">
      <g>
       <use xlink:href="#mfbef119be7" x="51.05" y="73.127833" style="stroke: #000000; stroke-width: 0.8"/>
      </g>
     </g>
     <g id="text_12">
      <!-- 250 -->
      <g transform="translate(24.9625 76.927051) scale(0.1 -0.1)">
       <use xlink:href="#DejaVuSans-32"/>
       <use xlink:href="#DejaVuSans-35" x="63.623047"/>
       <use xlink:href="#DejaVuSans-30" x="127.246094"/>
      </g>
     </g>
    </g>
    <g id="text_13">
     <!-- Number of Words -->
     <g transform="translate(18.882813 215.279844) rotate(-90) scale(0.1 -0.1)">
      <defs>
       <path id="DejaVuSans-4e" d="M 628 4666 
L 1478 4666 
L 3547 763 
L 3547 4666 
L 4159 4666 
L 4159 0 
L 3309 0 
L 1241 3903 
L 1241 0 
L 628 0 
L 628 4666 
z
" transform="scale(0.015625)"/>
       <path id="DejaVuSans-75" d="M 544 1381 
L 544 3500 
L 1119 3500 
L 1119 1403 
Q 1119 906 1312 657 
Q 1506 409 1894 409 
Q 2359 409 2629 706 
Q 2900 1003 2900 1516 
L 2900 3500 
L 3475 3500 
L 3475 0 
L 2900 0 
L 2900 538 
Q 2691 219 2414 64 
Q 2138 -91 1772 -91 
Q 1169 -91 856 284 
Q 544 659 544 1381 
z
M 1991 3584 
L 1991 3584 
z
" transform="scale(0.015625)"/>
       <path id="DejaVuSans-62" d="M 3116 1747 
Q 3116 2381 2855 2742 
Q 2594 3103 2138 3103 
Q 1681 3103 1420 2742 
Q 1159 2381 1159 1747 
Q 1159 1113 1420 752 
Q 1681 391 2138 391 
Q 2594 391 2855 752 
Q 3116 1113 3116 1747 
z
M 1159 2969 
Q 1341 3281 1617 3432 
Q 1894 3584 2278 3584 
Q 2916 3584 3314 3078 
Q 3713 2572 3713 1747 
Q 3713 922 3314 415 
Q 2916 -91 2278 -91 
Q 1894 -91 1617 61 
Q 1341 213 1159 525 
L 1159 0 
L 581 0 
L 581 4863 
L 1159 4863 
L 1159 2969 
z
" transform="scale(0.015625)"/>
       <path id="DejaVuSans-72" d="M 2631 2963 
Q 2534 3019 2420 3045 
Q 2306 3072 2169 3072 
Q 1681 3072 1420 2755 
Q 1159 2438 1159 1844 
L 1159 0 
L 581 0 
L 581 3500 
L 1159 3500 
L 1159 2956 
Q 1341 3275 1631 3429 
Q 1922 3584 2338 3584 
Q 2397 3584 2469 3576 
Q 2541 3569 2628 3553 
L 2631 2963 
z
" transform="scale(0.015625)"/>
       <path id="DejaVuSans-20" transform="scale(0.015625)"/>
       <path id="DejaVuSans-6f" d="M 1959 3097 
Q 1497 3097 1228 2736 
Q 959 2375 959 1747 
Q 959 1119 1226 758 
Q 1494 397 1959 397 
Q 2419 397 2687 759 
Q 2956 1122 2956 1747 
Q 2956 2369 2687 2733 
Q 2419 3097 1959 3097 
z
M 1959 3584 
Q 2709 3584 3137 3096 
Q 3566 2609 3566 1747 
Q 3566 888 3137 398 
Q 2709 -91 1959 -91 
Q 1206 -91 779 398 
Q 353 888 353 1747 
Q 353 2609 779 3096 
Q 1206 3584 1959 3584 
z
" transform="scale(0.015625)"/>
       <path id="DejaVuSans-66" d="M 2375 4863 
L 2375 4384 
L 1825 4384 
Q 1516 4384 1395 4259 
Q 1275 4134 1275 3809 
L 1275 3500 
L 2222 3500 
L 2222 3053 
L 1275 3053 
L 1275 0 
L 697 0 
L 697 3053 
L 147 3053 
L 147 3500 
L 697 3500 
L 697 3744 
Q 697 4328 969 4595 
Q 1241 4863 1831 4863 
L 2375 4863 
z
" transform="scale(0.015625)"/>
       <path id="DejaVuSans-57" d="M 213 4666 
L 850 4666 
L 1831 722 
L 2809 4666 
L 3519 4666 
L 4500 722 
L 5478 4666 
L 6119 4666 
L 4947 0 
L 4153 0 
L 3169 4050 
L 2175 0 
L 1381 0 
L 213 4666 
z
" transform="scale(0.015625)"/>
       <path id="DejaVuSans-64" d="M 2906 2969 
L 2906 4863 
L 3481 4863 
L 3481 0 
L 2906 0 
L 2906 525 
Q 2725 213 2448 61 
Q 2172 -91 1784 -91 
Q 1150 -91 751 415 
Q 353 922 353 1747 
Q 353 2572 751 3078 
Q 1150 3584 1784 3584 
Q 2172 3584 2448 3432 
Q 2725 3281 2906 2969 
z
M 947 1747 
Q 947 1113 1208 752 
Q 1469 391 1925 391 
Q 2381 391 2643 752 
Q 2906 1113 2906 1747 
Q 2906 2381 2643 2742 
Q 2381 3103 1925 3103 
Q 1469 3103 1208 2742 
Q 947 2381 947 1747 
z
" transform="scale(0.015625)"/>
       <path id="DejaVuSans-73" d="M 2834 3397 
L 2834 2853 
Q 2591 2978 2328 3040 
Q 2066 3103 1784 3103 
Q 1356 3103 1142 2972 
Q 928 2841 928 2578 
Q 928 2378 1081 2264 
Q 1234 2150 1697 2047 
L 1894 2003 
Q 2506 1872 2764 1633 
Q 3022 1394 3022 966 
Q 3022 478 2636 193 
Q 2250 -91 1575 -91 
Q 1294 -91 989 -36 
Q 684 19 347 128 
L 347 722 
Q 666 556 975 473 
Q 1284 391 1588 391 
Q 1994 391 2212 530 
Q 2431 669 2431 922 
Q 2431 1156 2273 1281 
Q 2116 1406 1581 1522 
L 1381 1569 
Q 847 1681 609 1914 
Q 372 2147 372 2553 
Q 372 3047 722 3315 
Q 1072 3584 1716 3584 
Q 2034 3584 2315 3537 
Q 2597 3491 2834 3397 
z
" transform="scale(0.015625)"/>
      </defs>
      <use xlink:href="#DejaVuSans-4e"/>
      <use xlink:href="#DejaVuSans-75" x="74.804688"/>
      <use xlink:href="#DejaVuSans-6d" x="138.183594"/>
      <use xlink:href="#DejaVuSans-62" x="235.595703"/>
      <use xlink:href="#DejaVuSans-65" x="299.072266"/>
      <use xlink:href="#DejaVuSans-72" x="360.595703"/>
      <use xlink:href="#DejaVuSans-20" x="401.708984"/>
      <use xlink:href="#DejaVuSans-6f" x="433.496094"/>
      <use xlink:href="#DejaVuSans-66" x="494.677734"/>
      <use xlink:href="#DejaVuSans-20" x="529.882812"/>
      <use xlink:href="#DejaVuSans-57" x="561.669922"/>
      <use xlink:href="#DejaVuSans-6f" x="654.671875"/>
      <use xlink:href="#DejaVuSans-72" x="715.853516"/>
      <use xlink:href="#DejaVuSans-64" x="755.216797"/>
      <use xlink:href="#DejaVuSans-73" x="818.693359"/>
     </g>
    </g>
   </g>
   <g id="line2d_12">
    <path d="M 87.511364 278.443422 
L 106.37069 186.405399 
L 112.657132 245.066996 
L 118.943574 183.371179 
L 125.230016 265.295133 
L 131.516458 297.660152 
L 144.089342 281.477643 
L 150.375784 295.637338 
L 162.948668 210.17346 
L 169.23511 304.74 
L 181.807994 255.181065 
L 188.094436 236.638606 
L 194.380878 292.097414 
L 200.66732 220.793232 
L 213.240204 214.724791 
L 219.526646 282.489049 
L 225.813088 225.175995 
L 232.09953 271.768137 
L 238.385972 243.21275 
L 244.672414 286.028973 
L 250.958856 246.078403 
L 257.245298 198.542281 
L 263.53174 272.577262 
L 269.818182 38.74 
L 276.104624 195.508061 
L 282.391066 178.65128 
L 288.677508 216.747605 
L 294.96395 171.571432 
L 301.250392 213.135437 
L 307.536834 201.74507 
L 313.823276 223.682966 
L 320.109718 230.9073 
L 326.39616 225.305662 
L 332.682602 228.682205 
L 338.969044 275.746337 
L 345.255486 247.52327 
L 351.541928 216.68811 
L 357.82837 235.627199 
L 364.114812 203.156825 
L 370.401254 215.880684 
L 376.687696 214.352167 
L 382.974138 216.314144 
L 389.26058 220.034677 
L 395.547022 209.483865 
L 401.833464 244.127833 
L 408.119906 274.903498 
L 414.406348 244.814144 
L 420.69279 216.694373 
L 426.979232 259.542757 
L 433.265674 234.53917 
L 439.552116 198.12582 
L 445.838558 201.806367 
L 452.125 215.136846 
L 458.411442 217.931691 
L 464.697884 227.555209 
L 470.984326 189.715458 
L 477.270768 235.842966 
L 483.55721 227.584106 
L 489.843652 221.467503 
L 496.130094 206.67751 
L 502.416536 224.133939 
L 508.702978 223.288035 
L 514.98942 212.644183 
L 521.275862 228.988221 
L 527.562304 204.350646 
L 533.848746 232.666269 
L 540.135188 231.529705 
L 546.42163 214.939332 
L 552.708072 228.965399 
L 558.994514 203.73417 
L 565.280956 208.681018 
L 571.567398 203.295894 
L 577.85384 224.130875 
L 584.140282 219.250837 
L 590.426724 198.652217 
L 596.713166 203.795978 
L 602.999608 217.981521 
L 609.28605 203.620835 
L 615.572492 196.638457 
L 621.858934 183.221955 
L 628.145376 201.639715 
L 634.431818 191.631001 
L 640.71826 203.310342 
L 647.004702 195.569732 
L 653.291144 203.180802 
L 659.577586 186.607681 
L 665.864028 192.789905 
L 672.15047 233.230803 
L 678.436912 191.830218 
L 684.723354 192.132785 
L 691.009796 194.437851 
L 697.296238 191.116763 
L 703.58268 196.494799 
L 709.869122 187.192049 
L 716.155564 183.123707 
L 722.442006 193.749092 
L 728.728448 175.418745 
L 735.01489 180.527633 
L 741.301332 196.022483 
L 747.587774 192.118961 
L 753.874216 177.392182 
L 760.160658 192.487148 
L 766.4471 186.478956 
L 772.733542 184.600613 
L 779.019984 194.520175 
L 785.306426 182.839674 
L 791.592868 189.721277 
L 797.87931 197.46937 
L 804.165752 202.659302 
L 810.452194 290.47384 
L 816.738636 297.660152 
" clip-path="url(#p5c3298dedd)" style="fill: none; stroke: #1f77b4; stroke-width: 1.5; stroke-linecap: square"/>
   </g>
   <g id="patch_3">
    <path d="M 51.05 318.04 
L 51.05 25.44 
" style="fill: none; stroke: #000000; stroke-width: 0.8; stroke-linejoin: miter; stroke-linecap: square"/>
   </g>
   <g id="patch_4">
    <path d="M 853.2 318.04 
L 853.2 25.44 
" style="fill: none; stroke: #000000; stroke-width: 0.8; stroke-linejoin: miter; stroke-linecap: square"/>
   </g>
   <g id="patch_5">
    <path d="M 51.05 318.04 
L 853.2 318.04 
" style="fill: none; stroke: #000000; stroke-width: 0.8; stroke-linejoin: miter; stroke-linecap: square"/>
   </g>
   <g id="patch_6">
    <path d="M 51.05 25.44 
L 853.2 25.44 
" style="fill: none; stroke: #000000; stroke-width: 0.8; stroke-linejoin: miter; stroke-linecap: square"/>
   </g>
   <g id="text_14">
    <!-- Average Number of Different Words in Preprocessed Summaries over Time -->
    <g transform="translate(227.958438 19.44) scale(0.12 -0.12)">
     <defs>
      <path id="DejaVuSans-41" d="M 2188 4044 
L 1331 1722 
L 3047 1722 
L 2188 4044 
z
M 1831 4666 
L 2547 4666 
L 4325 0 
L 3669 0 
L 3244 1197 
L 1141 1197 
L 716 0 
L 50 0 
L 1831 4666 
z
" transform="scale(0.015625)"/>
      <path id="DejaVuSans-76" d="M 191 3500 
L 800 3500 
L 1894 563 
L 2988 3500 
L 3597 3500 
L 2284 0 
L 1503 0 
L 191 3500 
z
" transform="scale(0.015625)"/>
      <path id="DejaVuSans-61" d="M 2194 1759 
Q 1497 1759 1228 1600 
Q 959 1441 959 1056 
Q 959 750 1161 570 
Q 1363 391 1709 391 
Q 2188 391 2477 730 
Q 2766 1069 2766 1631 
L 2766 1759 
L 2194 1759 
z
M 3341 1997 
L 3341 0 
L 2766 0 
L 2766 531 
Q 2569 213 2275 61 
Q 1981 -91 1556 -91 
Q 1019 -91 701 211 
Q 384 513 384 1019 
Q 384 1609 779 1909 
Q 1175 2209 1959 2209 
L 2766 2209 
L 2766 2266 
Q 2766 2663 2505 2880 
Q 2244 3097 1772 3097 
Q 1472 3097 1187 3025 
Q 903 2953 641 2809 
L 641 3341 
Q 956 3463 1253 3523 
Q 1550 3584 1831 3584 
Q 2591 3584 2966 3190 
Q 3341 2797 3341 1997 
z
" transform="scale(0.015625)"/>
      <path id="DejaVuSans-67" d="M 2906 1791 
Q 2906 2416 2648 2759 
Q 2391 3103 1925 3103 
Q 1463 3103 1205 2759 
Q 947 2416 947 1791 
Q 947 1169 1205 825 
Q 1463 481 1925 481 
Q 2391 481 2648 825 
Q 2906 1169 2906 1791 
z
M 3481 434 
Q 3481 -459 3084 -895 
Q 2688 -1331 1869 -1331 
Q 1566 -1331 1297 -1286 
Q 1028 -1241 775 -1147 
L 775 -588 
Q 1028 -725 1275 -790 
Q 1522 -856 1778 -856 
Q 2344 -856 2625 -561 
Q 2906 -266 2906 331 
L 2906 616 
Q 2728 306 2450 153 
Q 2172 0 1784 0 
Q 1141 0 747 490 
Q 353 981 353 1791 
Q 353 2603 747 3093 
Q 1141 3584 1784 3584 
Q 2172 3584 2450 3431 
Q 2728 3278 2906 2969 
L 2906 3500 
L 3481 3500 
L 3481 434 
z
" transform="scale(0.015625)"/>
      <path id="DejaVuSans-44" d="M 1259 4147 
L 1259 519 
L 2022 519 
Q 2988 519 3436 956 
Q 3884 1394 3884 2338 
Q 3884 3275 3436 3711 
Q 2988 4147 2022 4147 
L 1259 4147 
z
M 628 4666 
L 1925 4666 
Q 3281 4666 3915 4102 
Q 4550 3538 4550 2338 
Q 4550 1131 3912 565 
Q 3275 0 1925 0 
L 628 0 
L 628 4666 
z
" transform="scale(0.015625)"/>
      <path id="DejaVuSans-6e" d="M 3513 2113 
L 3513 0 
L 2938 0 
L 2938 2094 
Q 2938 2591 2744 2837 
Q 2550 3084 2163 3084 
Q 1697 3084 1428 2787 
Q 1159 2491 1159 1978 
L 1159 0 
L 581 0 
L 581 3500 
L 1159 3500 
L 1159 2956 
Q 1366 3272 1645 3428 
Q 1925 3584 2291 3584 
Q 2894 3584 3203 3211 
Q 3513 2838 3513 2113 
z
" transform="scale(0.015625)"/>
      <path id="DejaVuSans-74" d="M 1172 4494 
L 1172 3500 
L 2356 3500 
L 2356 3053 
L 1172 3053 
L 1172 1153 
Q 1172 725 1289 603 
Q 1406 481 1766 481 
L 2356 481 
L 2356 0 
L 1766 0 
Q 1100 0 847 248 
Q 594 497 594 1153 
L 594 3053 
L 172 3053 
L 172 3500 
L 594 3500 
L 594 4494 
L 1172 4494 
z
" transform="scale(0.015625)"/>
      <path id="DejaVuSans-50" d="M 1259 4147 
L 1259 2394 
L 2053 2394 
Q 2494 2394 2734 2622 
Q 2975 2850 2975 3272 
Q 2975 3691 2734 3919 
Q 2494 4147 2053 4147 
L 1259 4147 
z
M 628 4666 
L 2053 4666 
Q 2838 4666 3239 4311 
Q 3641 3956 3641 3272 
Q 3641 2581 3239 2228 
Q 2838 1875 2053 1875 
L 1259 1875 
L 1259 0 
L 628 0 
L 628 4666 
z
" transform="scale(0.015625)"/>
      <path id="DejaVuSans-70" d="M 1159 525 
L 1159 -1331 
L 581 -1331 
L 581 3500 
L 1159 3500 
L 1159 2969 
Q 1341 3281 1617 3432 
Q 1894 3584 2278 3584 
Q 2916 3584 3314 3078 
Q 3713 2572 3713 1747 
Q 3713 922 3314 415 
Q 2916 -91 2278 -91 
Q 1894 -91 1617 61 
Q 1341 213 1159 525 
z
M 3116 1747 
Q 3116 2381 2855 2742 
Q 2594 3103 2138 3103 
Q 1681 3103 1420 2742 
Q 1159 2381 1159 1747 
Q 1159 1113 1420 752 
Q 1681 391 2138 391 
Q 2594 391 2855 752 
Q 3116 1113 3116 1747 
z
" transform="scale(0.015625)"/>
      <path id="DejaVuSans-63" d="M 3122 3366 
L 3122 2828 
Q 2878 2963 2633 3030 
Q 2388 3097 2138 3097 
Q 1578 3097 1268 2742 
Q 959 2388 959 1747 
Q 959 1106 1268 751 
Q 1578 397 2138 397 
Q 2388 397 2633 464 
Q 2878 531 3122 666 
L 3122 134 
Q 2881 22 2623 -34 
Q 2366 -91 2075 -91 
Q 1284 -91 818 406 
Q 353 903 353 1747 
Q 353 2603 823 3093 
Q 1294 3584 2113 3584 
Q 2378 3584 2631 3529 
Q 2884 3475 3122 3366 
z
" transform="scale(0.015625)"/>
      <path id="DejaVuSans-53" d="M 3425 4513 
L 3425 3897 
Q 3066 4069 2747 4153 
Q 2428 4238 2131 4238 
Q 1616 4238 1336 4038 
Q 1056 3838 1056 3469 
Q 1056 3159 1242 3001 
Q 1428 2844 1947 2747 
L 2328 2669 
Q 3034 2534 3370 2195 
Q 3706 1856 3706 1288 
Q 3706 609 3251 259 
Q 2797 -91 1919 -91 
Q 1588 -91 1214 -16 
Q 841 59 441 206 
L 441 856 
Q 825 641 1194 531 
Q 1563 422 1919 422 
Q 2459 422 2753 634 
Q 3047 847 3047 1241 
Q 3047 1584 2836 1778 
Q 2625 1972 2144 2069 
L 1759 2144 
Q 1053 2284 737 2584 
Q 422 2884 422 3419 
Q 422 4038 858 4394 
Q 1294 4750 2059 4750 
Q 2388 4750 2728 4690 
Q 3069 4631 3425 4513 
z
" transform="scale(0.015625)"/>
     </defs>
     <use xlink:href="#DejaVuSans-41"/>
     <use xlink:href="#DejaVuSans-76" x="62.533203"/>
     <use xlink:href="#DejaVuSans-65" x="121.712891"/>
     <use xlink:href="#DejaVuSans-72" x="183.236328"/>
     <use xlink:href="#DejaVuSans-61" x="224.349609"/>
     <use xlink:href="#DejaVuSans-67" x="285.628906"/>
     <use xlink:href="#DejaVuSans-65" x="349.105469"/>
     <use xlink:href="#DejaVuSans-20" x="410.628906"/>
     <use xlink:href="#DejaVuSans-4e" x="442.416016"/>
     <use xlink:href="#DejaVuSans-75" x="517.220703"/>
     <use xlink:href="#DejaVuSans-6d" x="580.599609"/>
     <use xlink:href="#DejaVuSans-62" x="678.011719"/>
     <use xlink:href="#DejaVuSans-65" x="741.488281"/>
     <use xlink:href="#DejaVuSans-72" x="803.011719"/>
     <use xlink:href="#DejaVuSans-20" x="844.125"/>
     <use xlink:href="#DejaVuSans-6f" x="875.912109"/>
     <use xlink:href="#DejaVuSans-66" x="937.09375"/>
     <use xlink:href="#DejaVuSans-20" x="972.298828"/>
     <use xlink:href="#DejaVuSans-44" x="1004.085938"/>
     <use xlink:href="#DejaVuSans-69" x="1081.087891"/>
     <use xlink:href="#DejaVuSans-66" x="1108.871094"/>
     <use xlink:href="#DejaVuSans-66" x="1144.076172"/>
     <use xlink:href="#DejaVuSans-65" x="1179.28125"/>
     <use xlink:href="#DejaVuSans-72" x="1240.804688"/>
     <use xlink:href="#DejaVuSans-65" x="1279.667969"/>
     <use xlink:href="#DejaVuSans-6e" x="1341.191406"/>
     <use xlink:href="#DejaVuSans-74" x="1404.570312"/>
     <use xlink:href="#DejaVuSans-20" x="1443.779297"/>
     <use xlink:href="#DejaVuSans-57" x="1475.566406"/>
     <use xlink:href="#DejaVuSans-6f" x="1568.568359"/>
     <use xlink:href="#DejaVuSans-72" x="1629.75"/>
     <use xlink:href="#DejaVuSans-64" x="1669.113281"/>
     <use xlink:href="#DejaVuSans-73" x="1732.589844"/>
     <use xlink:href="#DejaVuSans-20" x="1784.689453"/>
     <use xlink:href="#DejaVuSans-69" x="1816.476562"/>
     <use xlink:href="#DejaVuSans-6e" x="1844.259766"/>
     <use xlink:href="#DejaVuSans-20" x="1907.638672"/>
     <use xlink:href="#DejaVuSans-50" x="1939.425781"/>
     <use xlink:href="#DejaVuSans-72" x="1997.978516"/>
     <use xlink:href="#DejaVuSans-65" x="2036.841797"/>
     <use xlink:href="#DejaVuSans-70" x="2098.365234"/>
     <use xlink:href="#DejaVuSans-72" x="2161.841797"/>
     <use xlink:href="#DejaVuSans-6f" x="2200.705078"/>
     <use xlink:href="#DejaVuSans-63" x="2261.886719"/>
     <use xlink:href="#DejaVuSans-65" x="2316.867188"/>
     <use xlink:href="#DejaVuSans-73" x="2378.390625"/>
     <use xlink:href="#DejaVuSans-73" x="2430.490234"/>
     <use xlink:href="#DejaVuSans-65" x="2482.589844"/>
     <use xlink:href="#DejaVuSans-64" x="2544.113281"/>
     <use xlink:href="#DejaVuSans-20" x="2607.589844"/>
     <use xlink:href="#DejaVuSans-53" x="2639.376953"/>
     <use xlink:href="#DejaVuSans-75" x="2702.853516"/>
     <use xlink:href="#DejaVuSans-6d" x="2766.232422"/>
     <use xlink:href="#DejaVuSans-6d" x="2863.644531"/>
     <use xlink:href="#DejaVuSans-61" x="2961.056641"/>
     <use xlink:href="#DejaVuSans-72" x="3022.335938"/>
     <use xlink:href="#DejaVuSans-69" x="3063.449219"/>
     <use xlink:href="#DejaVuSans-65" x="3091.232422"/>
     <use xlink:href="#DejaVuSans-73" x="3152.755859"/>
     <use xlink:href="#DejaVuSans-20" x="3204.855469"/>
     <use xlink:href="#DejaVuSans-6f" x="3236.642578"/>
     <use xlink:href="#DejaVuSans-76" x="3297.824219"/>
     <use xlink:href="#DejaVuSans-65" x="3357.003906"/>
     <use xlink:href="#DejaVuSans-72" x="3418.527344"/>
     <use xlink:href="#DejaVuSans-20" x="3459.640625"/>
     <use xlink:href="#DejaVuSans-54" x="3491.427734"/>
     <use xlink:href="#DejaVuSans-69" x="3549.386719"/>
     <use xlink:href="#DejaVuSans-6d" x="3577.169922"/>
     <use xlink:href="#DejaVuSans-65" x="3674.582031"/>
    </g>
   </g>
  </g>
 </g>
 <defs>
  <clipPath id="p5c3298dedd">
   <rect x="51.05" y="25.44" width="802.15" height="292.6"/>
  </clipPath>
 </defs>
</svg>
